<svg width="42" height="42" viewBox="0 0 42 42" fill="none" xmlns="http://www.w3.org/2000/svg">
<path d="M39.75 12.6667V29.3333C39.75 32.096 38.6525 34.7455 36.699 36.699C34.7455 38.6525 32.096 39.75 29.3333 39.75H12.6667C9.90399 39.75 7.25447 38.6525 5.30097 36.699C3.34747 34.7455 2.25 32.096 2.25 29.3333V12.6667C2.25 9.90399 3.34747 7.25447 5.30097 5.30097C7.25447 3.34747 9.90399 2.25 12.6667 2.25H29.3333C32.096 2.25 34.7455 3.34747 36.699 5.30097C38.6525 7.25447 39.75 9.90399 39.75 12.6667Z" stroke="#9747FF" stroke-width="3.125" stroke-linecap="round" stroke-linejoin="round"/>
<path d="M18.9167 39.75V21C18.9167 16.4416 19.9583 12.6666 27.25 12.6666M14.75 23.0833H27.25" stroke="#9747FF" stroke-width="3.125" stroke-linecap="round" stroke-linejoin="round"/>
</svg>
