<svg width="40" height="40" viewBox="0 0 40 40" fill="none" xmlns="http://www.w3.org/2000/svg">
<path d="M20 10.625C18.1458 10.625 16.3332 11.1748 14.7915 12.205C13.2498 13.2351 12.0482 14.6993 11.3386 16.4123C10.6291 18.1254 10.4434 20.0104 10.8051 21.829C11.1669 23.6475 12.0598 25.318 13.3709 26.6291C14.682 27.9402 16.3525 28.8331 18.171 29.1949C19.9896 29.5566 21.8746 29.3709 23.5877 28.6614C25.3007 27.9518 26.7649 26.7502 27.795 25.2085C28.8252 23.6668 29.375 21.8542 29.375 20C29.375 17.5136 28.3873 15.129 26.6291 13.3709C24.871 11.6127 22.4864 10.625 20 10.625ZM20 26.25C18.7639 26.25 17.5555 25.8834 16.5277 25.1967C15.4999 24.5099 14.6988 23.5338 14.2258 22.3918C13.7527 21.2497 13.6289 19.9931 13.8701 18.7807C14.1112 17.5683 14.7065 16.4547 15.5806 15.5806C16.4547 14.7065 17.5683 14.1112 18.7807 13.8701C19.9931 13.6289 21.2497 13.7527 22.3918 14.2258C23.5338 14.6988 24.5099 15.4999 25.1967 16.5277C25.8834 17.5555 26.25 18.7639 26.25 20C26.2448 21.656 25.5847 23.2427 24.4137 24.4137C23.2427 25.5847 21.656 26.2448 20 26.25ZM28.5938 0.46875H11.4062C8.50544 0.46875 5.72345 1.62109 3.67227 3.67227C1.62109 5.72345 0.46875 8.50544 0.46875 11.4062V28.5938C0.46875 31.4946 1.62109 34.2766 3.67227 36.3277C5.72345 38.3789 8.50544 39.5312 11.4062 39.5312H28.5938C31.4946 39.5312 34.2766 38.3789 36.3277 36.3277C38.3789 34.2766 39.5312 31.4946 39.5312 28.5938V11.4062C39.5312 8.50544 38.3789 5.72345 36.3277 3.67227C34.2766 1.62109 31.4946 0.46875 28.5938 0.46875ZM36.4062 28.5938C36.4062 29.6197 36.2042 30.6356 35.8116 31.5835C35.4189 32.5313 34.8435 33.3926 34.118 34.118C33.3926 34.8435 32.5313 35.4189 31.5835 35.8116C30.6356 36.2042 29.6197 36.4062 28.5938 36.4062H11.4062C10.3803 36.4062 9.36439 36.2042 8.41654 35.8116C7.46868 35.4189 6.60744 34.8435 5.88198 34.118C5.15652 33.3926 4.58106 32.5313 4.18844 31.5835C3.79583 30.6356 3.59375 29.6197 3.59375 28.5938V11.4062C3.59375 9.33425 4.41685 7.34711 5.88198 5.88198C7.34711 4.41685 9.33425 3.59375 11.4062 3.59375H28.5938C29.6197 3.59375 30.6356 3.79583 31.5835 4.18844C32.5313 4.58106 33.3926 5.15652 34.118 5.88198C34.8435 6.60744 35.4189 7.46868 35.8116 8.41654C36.2042 9.36439 36.4062 10.3803 36.4062 11.4062V28.5938ZM32.5 9.84375C32.5 10.3073 32.3625 10.7604 32.105 11.1459C31.8475 11.5313 31.4814 11.8317 31.0532 12.0091C30.6249 12.1865 30.1537 12.2329 29.699 12.1425C29.2444 12.052 28.8267 11.8288 28.499 11.501C28.1712 11.1733 27.948 10.7556 27.8575 10.301C27.7671 9.84635 27.8135 9.3751 27.9909 8.94684C28.1683 8.51857 28.4687 8.15253 28.8541 7.89499C29.2396 7.63746 29.6927 7.5 30.1562 7.5C30.7779 7.5 31.374 7.74693 31.8135 8.18647C32.2531 8.62601 32.5 9.22215 32.5 9.84375Z" fill="#9747FF"/>
</svg>
