<svg width="45" height="45" viewBox="0 0 45 45" fill="none" xmlns="http://www.w3.org/2000/svg">
<path d="M26.9934 6.76338C26.9934 4.79913 24.6534 3.77763 23.2134 5.11413L14.5014 13.1984C14.2936 13.3918 14.0203 13.4995 13.7364 13.4999H7.86841C6.9733 13.4999 6.11486 13.8555 5.48192 14.4884C4.84899 15.1213 4.49341 15.9798 4.49341 16.8749V28.1249C4.49341 29.02 4.84899 29.8784 5.48192 30.5114C6.11486 31.1443 6.9733 31.4999 7.86841 31.4999H13.7364C14.02 31.4996 14.2932 31.6065 14.5014 31.7991L23.2134 39.8856C24.6534 41.2199 26.9934 40.2006 26.9934 38.2364V6.76338ZM16.0314 14.8476L24.7434 6.76338V38.2364L16.0314 30.1499C15.4073 29.5712 14.5875 29.2498 13.7364 29.2499H7.86841C7.57004 29.2499 7.28389 29.1314 7.07291 28.9204C6.86193 28.7094 6.74341 28.4232 6.74341 28.1249V16.8749C6.74341 16.5765 6.86193 16.2904 7.07291 16.0794C7.28389 15.8684 7.57004 15.7499 7.86841 15.7499H13.7364C14.5875 15.75 15.4073 15.4285 16.0314 14.8499V14.8476ZM29.5719 17.2034C29.6764 17.0986 29.8006 17.0155 29.9372 16.9588C30.0739 16.9021 30.2204 16.8729 30.3684 16.8729C30.5164 16.8729 30.6629 16.9021 30.7996 16.9588C30.9363 17.0155 31.0604 17.0986 31.1649 17.2034L34.8684 20.9091L38.5719 17.2034C38.7829 16.9921 39.0691 16.8733 39.3676 16.8731C39.5154 16.873 39.6618 16.902 39.7984 16.9585C39.935 17.015 40.0592 17.0978 40.1638 17.2023C40.2684 17.3067 40.3514 17.4307 40.408 17.5673C40.4647 17.7038 40.4939 17.8501 40.494 17.998C40.4941 18.1458 40.4651 18.2922 40.4087 18.4288C40.3522 18.5654 40.2694 18.6895 40.1649 18.7941L36.4592 22.4999L40.1649 26.2034C40.2724 26.3072 40.3581 26.4313 40.417 26.5685C40.476 26.7058 40.507 26.8534 40.5083 27.0028C40.5096 27.1522 40.4812 27.3003 40.4246 27.4386C40.368 27.5768 40.2845 27.7024 40.1789 27.8081C40.0732 27.9137 39.9476 27.9972 39.8094 28.0538C39.6711 28.1104 39.523 28.1388 39.3736 28.1375C39.2242 28.1362 39.0766 28.1052 38.9393 28.0462C38.8021 27.9873 38.6779 27.9016 38.5742 27.7941L34.8684 24.0906L31.1649 27.7941C31.0605 27.8987 30.9364 27.9817 30.7999 28.0384C30.6634 28.0951 30.517 28.1243 30.3692 28.1244C30.2214 28.1245 30.075 28.0955 29.9384 28.039C29.8018 27.9825 29.6776 27.8997 29.573 27.7953C29.4684 27.6908 29.3854 27.5668 29.3288 27.4302C29.2721 27.2937 29.2429 27.1474 29.2428 26.9995C29.2427 26.8517 29.2717 26.7053 29.3282 26.5687C29.3846 26.4321 29.4675 26.308 29.5719 26.2034L33.2777 22.4999L29.5742 18.7941C29.3633 18.5832 29.2448 18.2971 29.2448 17.9988C29.2448 17.7004 29.3633 17.4143 29.5742 17.2034H29.5719Z" fill="#9747FF"/>
</svg>
