<svg width="45" height="45" viewBox="0 0 45 45" fill="none" xmlns="http://www.w3.org/2000/svg">
<path d="M6.05769 34.7987C10.3269 34.7987 13.7308 32.9873 16.2692 29.3644C16.2692 29.1102 16.125 28.8877 15.8365 28.697L14.1923 25.0741C13.4423 26.7902 12.3317 28.1727 10.8606 29.2214C9.38942 30.2701 7.78846 30.7945 6.05769 30.7945H1.81731C1.35577 30.7945 0.9375 31.0011 0.5625 31.4142C0.1875 31.8273 0 32.2881 0 32.7966C0 33.3051 0.1875 33.7659 0.5625 34.179C0.9375 34.5922 1.35577 34.7987 1.81731 34.7987H6.05769ZM38.25 0.858047C37.3269 -0.0317838 36.4615 -0.0317838 35.6538 0.858047C34.7885 1.81144 34.7885 2.76483 35.6538 3.71822L37.9904 6.38771H30.8077C26.5962 6.38771 23.2212 8.19915 20.6827 11.822C20.6827 12.0127 20.7981 12.2352 21.0288 12.4894L22.6731 16.1123C23.4231 14.3962 24.5337 13.0138 26.0048 11.965C27.476 10.9163 29.0769 10.3919 30.8077 10.3919H37.9904L35.6538 13.0614C34.7885 14.0148 34.7885 14.9682 35.6538 15.9216C36 16.303 36.4327 16.4936 36.9519 16.4936C37.3558 16.4936 37.7885 16.303 38.25 15.9216L43.7885 9.81991C44.5385 8.86652 44.5385 7.91313 43.7885 6.95974L38.25 0.858047ZM38.25 25.2648C37.3269 24.375 36.4615 24.375 35.6538 25.2648C34.7885 26.2182 34.7885 27.1716 35.6538 28.125L37.9904 30.7945H30.8077C29.0769 30.7945 27.4615 30.2701 25.9615 29.2214C24.4615 28.1727 23.3077 26.7902 22.5 25.0741L20.5096 20.5932L18.4327 16.1123L17.5673 14.3008C16.5288 11.8856 14.9712 9.96292 12.8942 8.53283C10.8173 7.10275 8.53846 6.38771 6.05769 6.38771H1.81731C1.35577 6.38771 0.9375 6.59428 0.5625 7.00741C0.1875 7.42055 0 7.88135 0 8.38983C0 8.8983 0.1875 9.35911 0.5625 9.77224C0.9375 10.1854 1.35577 10.3919 1.81731 10.3919H6.05769C9.75 10.3919 12.5192 12.2987 14.3654 16.1123L16.4423 20.5932L18.4327 25.0741L19.3846 26.8856C20.5385 29.3008 22.1394 31.2235 24.1875 32.6536C26.2356 34.0837 28.5 34.7987 30.9808 34.7987H38.25L35.8269 37.4682C34.9615 38.4216 34.9615 39.375 35.8269 40.3284C36.1731 40.7097 36.6058 40.9004 37.125 40.9004C37.5865 40.9004 38.0192 40.7097 38.4231 40.3284L43.9615 34.2267C44.7115 33.2733 44.7115 32.3199 43.9615 31.3665L38.25 25.2648Z" fill="#9747FF"/>
</svg>
