<svg width="50" height="50" viewBox="0 0 50 50" fill="none" xmlns="http://www.w3.org/2000/svg">
<path d="M43.75 21.875C43.75 18.1666 42.6503 14.5415 40.5901 11.4581C38.5298 8.37464 35.6014 5.97141 32.1753 4.55226C28.7492 3.13312 24.9792 2.76181 21.3421 3.48528C17.7049 4.20875 14.364 5.99452 11.7418 8.61675C9.11952 11.239 7.33376 14.5799 6.61028 18.2171C5.88681 21.8542 6.25812 25.6242 7.67727 29.0503C9.09641 32.4764 11.4996 35.4048 14.5831 37.4651C17.6665 39.5253 21.2916 40.625 25 40.625H31.25V48.4375L40.625 39.0625L31.25 29.6875V37.5H25C21.9097 37.5 18.8887 36.5836 16.3192 34.8667C13.7497 33.1498 11.747 30.7095 10.5644 27.8544C9.38177 24.9993 9.07234 21.8577 9.67523 18.8267C10.2781 15.7958 11.7663 13.0117 13.9515 10.8265C16.1367 8.64127 18.9208 7.15313 21.9517 6.55023C24.9827 5.94734 28.1243 6.25676 30.9794 7.43938C33.8345 8.622 36.2748 10.6247 37.9917 13.1942C39.7086 15.7637 40.625 18.7847 40.625 21.875H43.75Z" fill="#9747FF"/>
<path d="M29.5491 27.8335C28.8587 27.8504 28.1738 27.706 27.5491 27.4116C26.9943 27.1301 26.5169 26.717 26.1584 26.2085C25.7655 25.6152 25.4897 24.9523 25.3459 24.2554C25.1613 23.3928 25.0722 22.5125 25.0803 21.6304C25.074 20.7484 25.163 19.8682 25.3459 19.0054C25.4926 18.3094 25.7682 17.6469 26.1584 17.0522C26.5169 16.5438 26.9943 16.1307 27.5491 15.8491C28.1738 15.5548 28.8587 15.4103 29.5491 15.4272C30.1982 15.3779 30.8492 15.4955 31.44 15.769C32.0308 16.0426 32.5417 16.4628 32.9241 16.9897C33.7298 18.3755 34.1101 19.9676 34.0178 21.5679C34.1101 23.1682 33.7298 24.7603 32.9241 26.146C32.5563 26.6959 32.0517 27.1407 31.46 27.4366C30.8682 27.7324 30.2097 27.8692 29.5491 27.8335V27.8335ZM29.5491 25.9272C29.8641 25.9461 30.178 25.8753 30.4545 25.7233C30.731 25.5712 30.9588 25.344 31.1116 25.0679C31.485 24.337 31.6829 23.5292 31.6897 22.7085V20.5522C31.7235 19.7464 31.5683 18.9437 31.2366 18.2085C31.0619 17.9409 30.8233 17.7211 30.5423 17.5689C30.2613 17.4168 29.9468 17.3371 29.6272 17.3371C29.3076 17.3371 28.9931 17.4168 28.7121 17.5689C28.4311 17.7211 28.1925 17.9409 28.0178 18.2085C27.6861 18.9437 27.5309 19.7464 27.5647 20.5522V22.7085C27.5325 23.5193 27.6875 24.3267 28.0178 25.0679C28.1669 25.3402 28.3894 25.5652 28.6602 25.7172C28.9309 25.8691 29.2389 25.9419 29.5491 25.9272V25.9272ZM15.4866 27.6304V25.7866H18.6116V17.6772L15.7053 19.2397L14.8459 17.5835L18.4709 15.5522H20.7522V25.7085H23.5334V27.6304H15.4866Z" fill="#9747FF"/>
</svg>
