<svg width="50" height="50" viewBox="0 0 50 50" fill="none" xmlns="http://www.w3.org/2000/svg">
<path d="M6.25 28.125C6.25 31.8334 7.34967 35.4585 9.40994 38.5419C11.4702 41.6254 14.3986 44.0286 17.8247 45.4477C21.2508 46.8669 25.0208 47.2382 28.6579 46.5147C32.2951 45.7912 35.636 44.0055 38.2582 41.3832C40.8805 38.761 42.6662 35.4201 43.3897 31.7829C44.1132 28.1458 43.7419 24.3758 42.3227 20.9497C40.9036 17.5236 38.5004 14.5952 35.4169 12.5349C32.3335 10.4747 28.7084 9.375 25 9.375H18.75V1.5625L9.375 10.9375L18.75 20.3125V12.5H25C28.0903 12.5 31.1113 13.4164 33.6808 15.1333C36.2503 16.8502 38.253 19.2905 39.4356 22.1456C40.6182 25.0007 40.9277 28.1423 40.3248 31.1733C39.7219 34.2042 38.2337 36.9883 36.0485 39.1735C33.8633 41.3587 31.0792 42.8469 28.0483 43.4498C25.0173 44.0527 21.8757 43.7432 19.0206 42.5606C16.1655 41.378 13.7252 39.3753 12.0083 36.8058C10.2914 34.2363 9.375 31.2153 9.375 28.125H6.25Z" fill="#9747FF"/>
<path d="M30.6719 34.5781C29.9815 34.595 29.2966 34.4506 28.6719 34.1563C28.1171 33.8747 27.6397 33.4616 27.2812 32.9531C26.8883 32.3599 26.6125 31.6969 26.4688 31C26.2841 30.1374 26.195 29.2571 26.2031 28.375C26.1968 27.493 26.2858 26.6129 26.4688 25.75C26.6154 25.054 26.891 24.3916 27.2812 23.7969C27.6397 23.2884 28.1171 22.8753 28.6719 22.5938C29.2966 22.2994 29.9815 22.155 30.6719 22.1719C31.321 22.1225 31.972 22.2402 32.5628 22.5137C33.1536 22.7872 33.6645 23.2074 34.0469 23.7344C34.8526 25.1201 35.2329 26.7122 35.1406 28.3125C35.2329 29.9128 34.8526 31.5049 34.0469 32.8906C33.6791 33.4406 33.1745 33.8853 32.5828 34.1812C31.991 34.4771 31.3325 34.6139 30.6719 34.5781V34.5781ZM30.6719 32.6719C30.9869 32.6907 31.3008 32.62 31.5773 32.4679C31.8538 32.3158 32.0816 32.0886 32.2344 31.8125C32.6078 31.0816 32.8057 30.2738 32.8125 29.4531V27.2969C32.8463 26.491 32.6911 25.6884 32.3594 24.9531C32.1847 24.6855 31.9461 24.4657 31.6651 24.3136C31.3841 24.1614 31.0696 24.0817 30.75 24.0817C30.4304 24.0817 30.1159 24.1614 29.8349 24.3136C29.5539 24.4657 29.3153 24.6855 29.1406 24.9531C28.8089 25.6884 28.6537 26.491 28.6875 27.2969V29.4531C28.6553 30.264 28.8103 31.0713 29.1406 31.8125C29.2897 32.0849 29.5122 32.3099 29.783 32.4618C30.0537 32.6138 30.3617 32.6866 30.6719 32.6719V32.6719ZM16.6094 34.375V32.5313H19.7344V24.4219L16.8281 25.9844L15.9688 24.3281L19.5937 22.2969H21.875V32.4531H24.6562V34.375H16.6094Z" fill="#9747FF"/>
</svg>
