<svg width="35" height="35" viewBox="0 0 35 35" fill="none" xmlns="http://www.w3.org/2000/svg">
<g clip-path="url(#clip0_4_704)">
<path d="M13.0131 0.0622559C9.67758 0.0622559 6.34173 1.33031 3.80493 3.86676C-1.26831 8.94037 -1.26831 17.2098 3.80493 22.2831C8.55408 27.0319 16.0896 27.3112 21.195 23.1675L22.4466 24.4195C22.3758 24.674 22.3594 24.9189 22.3984 25.1373C22.4374 25.3556 22.531 25.5422 22.6727 25.6841L31.7556 34.7669C32.0153 35.0265 32.4196 35.1201 32.8797 35.0272C33.3399 34.9343 33.818 34.6624 34.2091 34.2713C34.6001 33.8803 34.872 33.4021 34.965 32.942C35.0579 32.4819 34.9643 32.0775 34.7047 31.8178L25.6222 22.7349C25.4802 22.5931 25.2935 22.4994 25.075 22.4604C24.8564 22.4213 24.6113 22.4379 24.3566 22.5088L23.105 21.2569C27.2486 16.1514 26.97 8.61592 22.2209 3.86711C19.6844 1.32996 16.3486 0.0622559 13.0131 0.0622559ZM13.0131 2.93821C15.602 2.93821 18.1913 3.93011 20.1751 5.91357C21.1182 6.85259 21.8666 7.96863 22.3772 9.19764C22.8878 10.4266 23.1507 11.7444 23.1507 13.0753C23.1507 14.4061 22.8878 15.7239 22.3772 16.9529C21.8666 18.1819 21.1182 19.298 20.1751 20.237C19.2361 21.1801 18.1201 21.9284 16.8911 22.4391C15.6621 22.9497 14.3443 23.2126 13.0134 23.2126C11.6826 23.2126 10.3648 22.9497 9.1358 22.4391C7.9068 21.9284 6.79075 21.1801 5.85173 20.237C4.90863 19.298 4.16028 18.1819 3.64964 16.9529C3.13901 15.7239 2.87615 14.4061 2.87615 13.0753C2.87615 11.7444 3.13901 10.4266 3.64964 9.19764C4.16028 7.96863 4.90863 6.85259 5.85173 5.91357C7.83518 3.93011 10.4241 2.93821 13.0127 2.93821H13.0131Z" fill="black"/>
</g>
<defs>
<clipPath id="clip0_4_704">
<rect width="35" height="35" fill="white"/>
</clipPath>
</defs>
</svg>
