<svg width="42" height="42" viewBox="0 0 42 42" fill="none" xmlns="http://www.w3.org/2000/svg">
<path d="M39.75 12.6667V29.3333C39.75 32.096 38.6525 34.7455 36.699 36.699C34.7455 38.6525 32.096 39.75 29.3333 39.75H12.6667C9.90399 39.75 7.25447 38.6525 5.30097 36.699C3.34747 34.7455 2.25 32.096 2.25 29.3333V12.6667C2.25 9.90399 3.34747 7.25447 5.30097 5.30097C7.25447 3.34747 9.90399 2.25 12.6667 2.25H29.3333C32.096 2.25 34.7455 3.34747 36.699 5.30097C38.6525 7.25447 39.75 9.90399 39.75 12.6667Z" stroke="#9747FF" stroke-width="3" stroke-linecap="round" stroke-linejoin="round"/>
<path d="M16.8334 21C15.5972 21 14.3889 21.3666 13.3611 22.0533C12.3333 22.7401 11.5322 23.7162 11.0591 24.8582C10.5861 26.0003 10.4623 27.2569 10.7035 28.4693C10.9446 29.6817 11.5399 30.7953 12.414 31.6694C13.288 32.5435 14.4017 33.1387 15.6141 33.3799C16.8264 33.6211 18.0831 33.4973 19.2251 33.0242C20.3672 32.5512 21.3433 31.7501 22.0301 30.7223C22.7168 29.6945 23.0834 28.4861 23.0834 27.25V8.5C23.7771 10.5833 26.4167 14.75 31.4167 14.75" stroke="#9747FF" stroke-width="3" stroke-linecap="round" stroke-linejoin="round"/>
</svg>
